<?xml version="1.0" encoding="UTF-8"?>
<svg xmlns="http://www.w3.org/2000/svg" width="900" height="600" viewBox="0 0 900 600">
  <rect width="100%" height="100%" fill="white"/>
  <text x="450" y="24" text-anchor="middle" font-family="sans-serif" font-size="18">Trajectory</text>
  <g font-family="sans-serif" font-size="11" fill="#444" stroke="#d0d0d0" stroke-width="1">
    <rect x="72" y="40" width="804" height="506" fill="none" stroke="#bdbdbd"/>
    <line x1="72" y1="40" x2="72" y2="546"/>
    <text x="72" y="582" text-anchor="middle" stroke="none">0</text>
    <line x1="232.8" y1="40" x2="232.8" y2="546"/>
    <text x="232.8" y="582" text-anchor="middle" stroke="none">1.25</text>
    <line x1="393.6" y1="40" x2="393.6" y2="546"/>
    <text x="393.6" y="582" text-anchor="middle" stroke="none">2.5</text>
    <line x1="554.4" y1="40" x2="554.4" y2="546"/>
    <text x="554.4" y="582" text-anchor="middle" stroke="none">3.75</text>
    <line x1="715.2" y1="40" x2="715.2" y2="546"/>
    <text x="715.2" y="582" text-anchor="middle" stroke="none">5</text>
    <line x1="876" y1="40" x2="876" y2="546"/>
    <text x="876" y="582" text-anchor="middle" stroke="none">6.25</text>
    <line x1="72" y1="546" x2="876" y2="546"/>
    <text x="64" y="550" text-anchor="end" stroke="none">-8.6</text>
    <line x1="72" y1="444.8" x2="876" y2="444.8"/>
    <text x="64" y="448.8" text-anchor="end" stroke="none">1.84</text>
    <line x1="72" y1="343.6" x2="876" y2="343.6"/>
    <text x="64" y="347.6" text-anchor="end" stroke="none">12.28</text>
    <line x1="72" y1="242.4" x2="876" y2="242.4"/>
    <text x="64" y="246.4" text-anchor="end" stroke="none">22.72</text>
    <line x1="72" y1="141.2" x2="876" y2="141.2"/>
    <text x="64" y="145.2" text-anchor="end" stroke="none">33.16</text>
    <line x1="72" y1="40" x2="876" y2="40"/>
    <text x="64" y="44" text-anchor="end" stroke="none">43.6</text>
  </g>
  <text x="474.0" y="596" text-anchor="middle" font-family="sans-serif" font-size="12">Time (s)</text>
  <text x="18" y="293.0" text-anchor="middle" font-family="sans-serif" font-size="12" transform="rotate(-90 18 293)">Value</text>
  <g font-family="sans-serif" font-size="12">
    <rect x="80" y="48" width="170" height="88" fill="white" fill-opacity="0.9" stroke="#c8c8c8"/>
    <line x1="90" y1="62" x2="114" y2="62" stroke="#2e86de" stroke-width="2"/>
    <text x="122" y="66" fill="#333">Position (units)</text>
    <line x1="90" y1="82" x2="114" y2="82" stroke="#e67e22" stroke-width="2"/>
    <text x="122" y="86" fill="#333">Velocity (units/s)</text>
    <line x1="90" y1="102" x2="114" y2="102" stroke="#27ae60" stroke-width="2"/>
    <text x="122" y="106" fill="#333">Acceleration (units/s²)</text>
    <line x1="90" y1="122" x2="114" y2="122" stroke="#95a5a6" stroke-width="1.5" stroke-dasharray="6,4"/>
    <text x="122" y="126" fill="#333">Target</text>
  </g>
  <path d="M 72 462.636 C 82.72 462.636 93.44 462.691 104.16 462.186 C 179.2 458.652 254.24 430.379 329.28 377.368 C 340 369.795 350.72 361.662 361.44 353.584 C 436.48 297.039 511.52 240.494 586.56 183.948 C 597.28 175.87 608 167.738 618.72 160.165 C 693.76 107.154 768.8 78.881 843.84 75.347 C 854.56 74.842 865.28 74.897 876 74.897 " fill="none" stroke="#2e86de" stroke-width="2"/>
  <path d="M 72 462.636 C 77.36 462.636 82.72 462.545 88.08 461.535 C 93.44 460.526 98.8 458.597 104.16 456.578 C 179.2 428.305 254.24 400.032 329.28 371.76 C 334.64 369.74 340 367.812 345.36 366.802 C 350.72 365.792 356.08 365.701 361.44 365.701 C 436.48 365.701 511.52 365.701 586.56 365.701 C 591.92 365.701 597.28 365.792 602.64 366.802 C 608 367.812 613.36 369.74 618.72 371.76 C 693.76 400.032 768.8 428.305 843.84 456.578 C 849.2 458.597 854.56 460.526 859.92 461.535 C 865.28 462.545 870.64 462.636 876 462.636 " fill="none" stroke="#e67e22" stroke-width="2"/>
  <path d="M 72 462.636 C 74.68 462.636 77.36 460.024 80.04 455.538 C 82.72 451.052 85.4 444.747 88.08 438.402 C 90.76 432.058 93.44 425.753 96.12 421.266 C 98.8 416.78 101.48 414.169 104.16 414.169 C 179.2 414.169 254.24 414.169 329.28 414.169 C 331.96 414.169 334.64 416.78 337.32 421.266 C 340 425.753 342.68 432.058 345.36 438.402 C 348.04 444.747 350.72 451.052 353.4 455.538 C 356.08 460.024 358.76 462.636 361.44 462.636 C 436.48 462.636 511.52 462.636 586.56 462.636 C 589.24 462.636 591.92 465.248 594.6 469.734 C 597.28 474.22 599.96 480.525 602.64 486.87 C 605.32 493.214 608 499.519 610.68 504.006 C 613.36 508.492 616.04 511.103 618.72 511.103 C 693.76 511.103 768.8 511.103 843.84 511.103 C 846.52 511.103 849.2 508.492 851.88 504.006 C 854.56 499.519 857.24 493.214 859.92 486.87 C 862.6 480.525 865.28 474.22 867.96 469.734 C 870.64 465.248 873.32 462.636 876 462.636 " fill="none" stroke="#27ae60" stroke-width="2"/>
  <path d="M 72 74.897 C 340 74.897 608 74.897 876 74.897 " fill="none" stroke="#95a5a6" stroke-width="1.5" stroke-dasharray="6,4"/>
</svg>
